# xmcd CD database file
#
# Track frame offsets:
#	150
#	26485
#	44809
#	61248
#	83258
#	102521
#	118447
#	133883
#	156030
#	180262
#	197502
#	213738
#	234901
#
# Disc length: 3398 seconds
#
# Revision: 20
# Processed by: cddbd v1.5.2PL0 Copyright (c) Steve Scherf et al.
# Submitted via: jetAudio 7
#
DISCID=b00d440d
DTITLE=Scorpions - Unbreakable
DYEAR=2004
DGENRE=Rock
TTITLE0=New Generation
TTITLE1=Love 'Em Or Leave 'Em
TTITLE2=Deep And Dark
TTITLE3=Borderline
TTITLE4=Blood Too Hot
TTITLE5=Maybe I Maybe You
TTITLE6=Someday Is Now
TTITLE7=My City My Town
TTITLE8=Through My Eyes
TTITLE9=Can You Feel It
TTITLE10=This Time
TTITLE11=She Said
TTITLE12=Remember The Good Times (Retro Garage Mix)
EXTD=
EXTT0=
EXTT1=
EXTT2=
EXTT3=
EXTT4=
EXTT5=
EXTT6=
EXTT7=
EXTT8=
EXTT9=
EXTT10=
EXTT11=
EXTT12=
PLAYORDER=
